<svg width="40" height="44" viewBox="0 0 40 44" fill="none" xmlns="http://www.w3.org/2000/svg">
<g filter="url(#filter0_d_475_25)">
<path d="M20.0045 19.5C20.9682 19.5 21.7917 19.1568 22.475 18.4705C23.1583 17.7842 23.5 16.9592 23.5 15.9955C23.5 15.0318 23.1568 14.2083 22.4705 13.525C21.7842 12.8417 20.9592 12.5 19.9955 12.5C19.0318 12.5 18.2083 12.8432 17.525 13.5295C16.8417 14.2158 16.5 15.0408 16.5 16.0045C16.5 16.9682 16.8432 17.7917 17.5295 18.475C18.2158 19.1583 19.0408 19.5 20.0045 19.5ZM20 40C14.6333 35.4333 10.625 31.1917 7.975 27.275C5.325 23.3583 4 19.7333 4 16.4C4 11.4 5.60833 7.41667 8.825 4.45C12.0417 1.48333 15.7667 0 20 0C24.2333 0 27.9583 1.48333 31.175 4.45C34.3917 7.41667 36 11.4 36 16.4C36 19.7333 34.675 23.3583 32.025 27.275C29.375 31.1917 25.3667 35.4333 20 40Z" fill="white"/>
<path d="M20.0045 21C21.3694 21 22.5747 20.4963 23.538 19.5288C24.4996 18.563 25 17.3581 25 15.9955C25 14.6306 24.4963 13.4253 23.5288 12.462C22.563 11.5004 21.3581 11 19.9955 11C18.6306 11 17.4253 11.5037 16.462 12.4712C15.5004 13.437 15 14.6419 15 16.0045C15 17.3694 15.5037 18.5747 16.4712 19.538C17.437 20.4996 18.6419 21 20.0045 21ZM20 38.0209C15.1847 33.8277 11.6059 29.9647 9.21735 26.4344C6.66778 22.6662 5.5 19.3325 5.5 16.4C5.5 11.7531 6.97842 8.19361 9.84195 5.55264C12.7919 2.83198 16.1573 1.5 20 1.5C23.8427 1.5 27.2081 2.83198 30.1581 5.55264C33.0216 8.19361 34.5 11.7531 34.5 16.4C34.5 19.3325 33.3322 22.6662 30.7826 26.4344C28.3941 29.9647 24.8153 33.8277 20 38.0209Z" stroke="#FF8C00" stroke-width="3"/>
</g>
<defs>
<filter id="filter0_d_475_25" x="0" y="0" width="40" height="48" filterUnits="userSpaceOnUse" color-interpolation-filters="sRGB">
<feFlood flood-opacity="0" result="BackgroundImageFix"/>
<feColorMatrix in="SourceAlpha" type="matrix" values="0 0 0 0 0 0 0 0 0 0 0 0 0 0 0 0 0 0 127 0" result="hardAlpha"/>
<feOffset dy="4"/>
<feGaussianBlur stdDeviation="2"/>
<feComposite in2="hardAlpha" operator="out"/>
<feColorMatrix type="matrix" values="0 0 0 0 0 0 0 0 0 0 0 0 0 0 0 0 0 0 0.25 0"/>
<feBlend mode="normal" in2="BackgroundImageFix" result="effect1_dropShadow_475_25"/>
<feBlend mode="normal" in="SourceGraphic" in2="effect1_dropShadow_475_25" result="shape"/>
</filter>
</defs>
</svg>
